<?xml version="1.0" encoding="iso-8859-1"?>
<!-- Generator: Adobe Illustrator 19.0.0, SVG Export Plug-In . SVG Version: 6.00 Build 0)  -->
<svg version="1.1" id="Layer_1" xmlns="http://www.w3.org/2000/svg" xmlns:xlink="http://www.w3.org/1999/xlink" x="0px" y="0px"
	 viewBox="0 0 510.455 510.455" style="enable-background:new 0 0 510.455 510.455;" xml:space="preserve">
<g transform="translate(1 1)">
	<path style="fill:#FFE100;" d="M446.654,176.655l-11.947,306.347c-0.853,10.24-7.68,17.92-17.067,17.92h18.773
		c10.24,0,18.773-7.68,19.627-17.92l23.893-300.373c0-3.413-2.56-5.973-5.12-5.973H446.654z"/>
	<g>
		<path style="fill:#63D3FD;" d="M403.988,99.855c0-33.28-26.453-59.733-59.733-59.733c-0.853,0-1.707,0-2.56,0
			c26.453,1.707,36.693,28.16,36.693,59.733c27.307,0,59.733,26.453,59.733,59.733c0,5.973-0.853,11.947-1.707,17.067h25.6
			c1.707-5.12,2.56-11.093,2.56-17.067C463.721,126.308,437.268,99.855,403.988,99.855"/>
		<path style="fill:#63D3FD;" d="M363.028,99.855c0-33.28-22.187-59.733-49.493-59.733c-3.413,0-6.827,0.853-11.093,1.707
			c1.707-8.533,5.12-17.067,9.387-23.893c2.56-4.267-0.853-11.093-5.973-10.24c-17.92,4.267-33.28,16.213-43.52,33.28
			c-1.707-0.853-4.267-0.853-5.973-0.853c-27.307,0-49.493,26.453-49.493,59.733c-27.307,0-49.493,26.453-49.493,59.733
			c0,5.973,0.853,11.947,1.707,17.067h95.573h61.44h95.573c1.707-5.12,1.707-11.093,1.707-17.067
			C412.521,126.308,390.334,99.855,363.028,99.855"/>
	</g>
	<path style="fill:#3DB9F9;" d="M378.388,99.855c0-33.28-26.453-59.733-59.733-59.733c-0.853,0-1.707,0-2.56,0
		c26.453,1.707,46.933,28.16,46.933,59.733c27.307,0,49.493,26.453,49.493,59.733c0,5.973-0.853,11.947-1.707,17.067h25.6
		c1.707-5.12,2.56-11.093,2.56-17.067C438.121,126.308,411.668,99.855,378.388,99.855"/>
	<path style="fill:#FFFFFF;" d="M206.014,99.855c0-31.573,20.48-57.173,46.933-59.733c-0.853,0-1.707,0-2.56,0
		c-33.28,0-59.733,26.453-59.733,59.733c-33.28,0-59.733,26.453-59.733,59.733c0,5.973,0.853,11.947,2.56,17.067h25.6
		c-1.707-5.12-1.707-11.093-1.707-17.067C156.521,126.308,178.708,99.855,206.014,99.855"/>
	<path style="fill:#FFE100;" d="M130.921,396.815c-30.72-2.56-59.733-28.16-59.733-59.733c0-29.013,25.6-52.907,52.907-58.88
		l-1.707-33.28c-45.227,6.827-68.267,45.227-68.267,93.013c0,50.347,28.16,92.16,78.507,93.867L130.921,396.815z"/>
	<path style="fill:#FFFFFF;" d="M54.121,336.228c0-43.52,19.627-81.067,58.88-90.453c-43.52,7.68-75.947,45.227-75.947,91.307
		c0,50.347,40.107,92.16,90.453,93.867v-1.707C80.574,424.122,54.121,384.868,54.121,336.228"/>
	<path style="fill:#FDCC00;" d="M392.894,500.922h-222.72c-8.533,0-16.213-8.533-17.067-18.773l-13.653-305.493h290.133
		l-20.48,306.347C408.254,493.242,401.428,500.922,392.894,500.922"/>
	<path style="fill:#FFE100;" d="M128.361,449.722l1.707,32.427c0,10.24,9.387,18.773,19.627,18.773h261.973
		c10.24,0,18.773-7.68,19.627-17.92l2.56-33.28H128.361z"/>
	<path style="fill:#FFA800;" d="M429.588,176.655l-20.48,306.347c-0.853,10.24-7.68,17.92-17.067,17.92h18.773
		c10.24,0,18.773-7.68,19.627-17.92l24.747-306.347H429.588z"/>
	<polygon style="fill:#FFE100;" points="142.014,227.855 426.174,227.855 429.588,176.655 139.454,176.655 	"/>
	<g>
		<polygon style="fill:#FFA800;" points="429.588,176.655 426.174,227.855 450.921,227.855 455.188,176.655 		"/>
		<polygon style="fill:#FFA800;" points="407.401,449.722 403.988,500.922 428.734,500.922 433.001,449.722 		"/>
	</g>
	<path style="fill:#FFFFFF;" d="M153.108,482.148l-13.653-305.493h-25.6l16.213,305.493c0,10.24,9.387,18.773,19.627,18.773h20.48
		C160.788,500.922,153.961,492.388,153.108,482.148"/>
	<path d="M411.668,509.455H149.694c-15.36,0-27.307-11.947-28.16-26.453l-16.213-305.493c0-2.56,0.853-4.267,2.56-5.973
		c1.707-2.56,3.413-3.413,5.973-3.413h341.333c2.56,0,4.267,0.853,5.973,2.56c1.707,1.707,2.56,4.267,2.56,6.827l-7.68,93.867
		c0,5.12-4.267,8.533-9.387,7.68c-4.267,0-8.533-4.267-7.68-9.387l6.827-84.48h-322.56l15.36,296.96
		c0,5.973,5.12,10.24,11.093,10.24h261.973c5.973,0,11.093-4.267,11.093-10.24l11.093-144.213c0-4.267,4.267-8.533,9.387-7.68
		c4.267,0,8.533,4.267,7.68,9.387l-11.093,144.213C438.974,498.362,426.174,509.455,411.668,509.455z"/>
	<path d="M455.188,304.655c0-5.12-3.413-8.533-8.533-8.533c-5.12,0-8.533,3.413-8.533,8.533s3.413,8.533,8.533,8.533
		C451.774,313.188,455.188,309.775,455.188,304.655"/>
	<path d="M435.561,185.188h-302.08c-3.413,0-6.827-2.56-8.533-5.973c-1.707-6.827-2.56-12.8-2.56-19.627
		c0-34.987,26.453-64,60.587-67.413c3.413-34.133,32.427-60.587,67.413-60.587c1.707,0,2.56,0,4.267,0
		c13.653-17.067,33.28-28.16,54.613-32.427c5.973-0.853,11.947,1.707,15.36,6.827c3.413,5.12,3.413,11.947,0,16.213
		c-1.707,3.413-4.267,5.973-5.973,9.387c34.987,0,63.147,26.453,67.413,60.587c34.133,4.267,60.587,33.28,60.587,67.413
		c0,6.827-0.853,12.8-2.56,19.627C442.388,182.628,438.974,185.188,435.561,185.188z M140.308,168.122h288.427
		c0.853-2.56,0.853-5.973,0.853-8.533c0-28.16-23.04-51.2-51.2-51.2c-5.12,0-8.533-3.413-8.533-8.533c0-28.16-23.04-51.2-51.2-51.2
		c-3.413,0-6.827,0.853-11.093,1.707c-2.56,0.853-5.973,0-7.68-2.56c-1.707-2.56-2.56-5.12-1.707-8.533
		c2.56-7.68,5.973-15.36,10.24-22.187c-17.067,4.267-31.573,14.507-41.813,29.013c-1.707,2.56-5.12,3.413-7.68,3.413
		c-3.413-0.853-5.973-0.853-8.533-0.853c-28.16,0-51.2,23.04-51.2,51.2c0,5.12-3.413,8.533-8.533,8.533
		c-28.16,0-51.2,23.04-51.2,51.2C139.454,162.148,139.454,165.562,140.308,168.122z M386.921,99.855L386.921,99.855L386.921,99.855z
		"/>
	<path d="M136.041,441.188h-9.387c-54.613-2.56-98.133-46.933-98.133-102.4c0-50.347,37.547-93.867,87.893-101.547l9.387-1.707
		l2.56,51.2l-6.827,1.707c-24.747,5.12-41.813,25.6-41.813,50.347c0,26.453,20.48,48.64,46.933,51.2l7.68,0.853L136.041,441.188z
		 M109.588,256.015c-36.693,10.24-64,43.52-64,82.773c0,42.667,31.573,78.507,72.533,84.48l-0.853-17.067
		c-30.72-6.827-54.613-34.987-54.613-67.413c0-29.867,19.627-56.32,47.787-64.853L109.588,256.015z"/>
	<path d="M411.668,509.455H149.694c-15.36,0-27.307-11.947-28.16-26.453l-1.707-32.427c0-2.56,0.853-4.267,2.56-5.973
		s4.267-2.56,5.973-2.56h305.493c2.56,0,4.267,0.853,5.973,2.56c1.707,1.707,2.56,4.267,2.56,6.827l-2.56,32.427
		C438.974,498.362,426.174,509.455,411.668,509.455z M136.894,458.255l0.853,23.893c0,5.973,5.12,10.24,11.093,10.24h261.973
		c5.973,0,10.24-4.267,11.093-10.24l1.707-23.893H136.894z"/>
	<path d="M451.774,236.388h-335.36c-4.267,0-8.533-3.413-8.533-7.68l-2.56-51.2c0-2.56,0.853-4.267,2.56-5.973
		c1.707-2.56,3.413-3.413,5.973-3.413h341.333c2.56,0,4.267,0.853,5.973,2.56c1.707,1.707,2.56,4.267,2.56,6.827l-4.267,51.2
		C459.454,232.975,456.041,236.388,451.774,236.388z M124.948,219.322h319.147l2.56-34.133H123.241L124.948,219.322z"/>
</g>
<g>
</g>
<g>
</g>
<g>
</g>
<g>
</g>
<g>
</g>
<g>
</g>
<g>
</g>
<g>
</g>
<g>
</g>
<g>
</g>
<g>
</g>
<g>
</g>
<g>
</g>
<g>
</g>
<g>
</g>
</svg>
