<?xml version="1.0" encoding="iso-8859-1"?>
<!-- Generator: Adobe Illustrator 19.0.0, SVG Export Plug-In . SVG Version: 6.00 Build 0)  -->
<svg version="1.1" id="Layer_1" xmlns="http://www.w3.org/2000/svg" xmlns:xlink="http://www.w3.org/1999/xlink" x="0px" y="0px"
	 viewBox="0 0 511.052 511.052" style="enable-background:new 0 0 511.052 511.052;" xml:space="preserve">
<g transform="translate(1)">
	<g>
		<path style="fill:#FFE100;" d="M435.148,132.267c3.793-22.756,10.43-45.511,18.015-67.319c0.948-4.741-1.896-8.533-5.689-8.533
			h-19.911c-7.585,24.652-13.274,50.252-18.015,75.852h-2.844c-3.793,26.548-5.689,54.044-5.689,80.593v72.059
			c0,17.067-6.637,33.185-17.067,43.615c-14.222,14.222-26.548,31.289-36.03,50.252c-5.689,12.326-16.119,18.963-26.548,18.963
			h9.482c13.274,0,25.6-7.585,32.237-18.963c11.378-18.963,26.548-36.03,44.563-50.252c13.274-10.43,19.911-26.548,19.911-42.667
			v-72.059C428.511,186.311,430.407,158.815,435.148,132.267C436.096,132.267,436.096,132.267,435.148,132.267L435.148,132.267z"/>
		<path style="fill:#FFE100;" d="M461.696,426.193l-113.778,8.533c-5.689,0-10.43,3.793-13.274,9.482s-8.533,9.481-14.222,9.481H255
			h-73.956c-5.689,0-11.378-3.793-14.222-9.481s-7.585-9.482-13.274-9.482l-105.244-8.533c-6.637-0.948-11.378-5.689-11.378-13.274
			l0,0c0-8.533,5.689-15.17,13.274-15.17h408.652c7.585,0,13.274,6.637,13.274,15.17l0,0
			C473.074,420.504,468.333,425.244,461.696,426.193"/>
	</g>
	<path style="fill:#FFA800;" d="M489.193,426.193c7.585-0.948,12.326-5.689,12.326-13.274c0-8.533-6.637-15.17-15.17-15.17H459.8
		c7.585,0,13.274,6.637,13.274,15.17c0,7.585-4.741,11.378-11.378,13.274"/>
	<path style="fill:#FFFFFF;" d="M48.304,426.193c-6.637-0.948-11.378-5.689-11.378-13.274c0-8.533,5.689-15.17,13.274-15.17H23.652
		c-8.533,0-15.17,6.637-15.17,15.17c0,7.585,5.689,11.378,12.326,13.274"/>
	<path style="fill:#FFA800;" d="M407.652,132.267h-28.444c-3.793,26.548-5.689,54.044-5.689,80.593v72.059
		c0,17.067-6.637,33.185-17.067,43.615c-14.222,14.222-26.548,31.289-36.03,50.252c-6.637,12.326-17.067,18.963-27.496,18.963h9.481
		c13.274,0,25.6-6.637,32.237-18.015c11.378-18.963,26.548-36.03,43.615-50.252c13.274-10.43,20.859-26.548,20.859-43.615v-72.059
		C400.067,186.311,401.963,158.815,407.652,132.267L407.652,132.267"/>
	<path style="fill:#FFFFFF;" d="M181.993,370.252c-9.481-18.963-21.807-36.03-36.03-50.252
		c-10.43-10.43-17.067-26.548-17.067-43.615v-72.059c0-27.496-1.896-54.044-5.689-80.593H93.815l0,0
		c4.741,26.548,7.585,54.044,7.585,81.541v72.059c0,17.067,7.585,33.185,20.859,43.615c17.067,14.222,32.237,31.289,43.615,50.252
		c6.637,11.378,18.963,18.015,32.237,18.015h9.481C197.163,388.267,187.681,381.63,181.993,370.252"/>
	<path style="fill:#FDCC00;" d="M103.296,56.415c7.585,24.652,13.274,50.252,18.015,75.852h268.326
		c3.793-25.6,9.481-51.2,18.015-75.852H255H103.296z"/>
	<path style="fill:#FFFFFF;" d="M74.852,56.415c9.481,24.652,16.119,50.252,20.859,75.852h25.6
		c-3.793-25.6-9.481-51.2-18.015-75.852H74.852z"/>
	<path style="fill:#FFA800;" d="M406.704,56.415c-7.585,24.652-13.274,50.252-18.015,75.852h25.6
		c4.741-25.6,11.378-51.2,20.859-75.852H406.704z"/>
	<path style="fill:#FFE100;" d="M385.844,132.267H124.156l0,0c3.793,26.548,5.689,54.044,5.689,81.541v72.059
		c0,17.067,6.637,33.185,17.067,43.615c14.222,14.222,26.548,31.289,36.03,50.252c5.689,11.378,16.119,18.015,26.548,18.015H255
		h44.563c10.43,0,20.859-6.637,26.548-18.015c9.481-18.963,21.807-36.03,36.03-50.252c10.43-10.43,17.067-26.548,17.067-43.615
		v-72.059C379.207,186.311,382.052,158.815,385.844,132.267L385.844,132.267"/>
	<path d="M328.956,464.118H171.563c-10.43,0-19.911-5.689-24.652-15.17c-0.948-1.896-1.896-3.793-6.637-3.793l-119.467-9.481
		C6.585,432.83-1,424.296-1,412.918c0-14.222,11.378-24.652,24.652-24.652H485.4c14.222,0,24.652,11.378,24.652,24.652
		c0,11.378-7.585,19.911-20.859,22.756h-0.948l-129.896,9.481c-2.844,0-4.741,0.948-6.637,3.793
		C348.867,458.43,339.385,464.118,328.956,464.118z M23.652,407.23c-2.844,0-5.689,2.844-5.689,5.689c0,0.948,0,2.844,4.741,3.793
		l119.467,9.482c9.481,0.948,17.067,5.689,21.807,14.222c1.896,2.844,4.741,4.741,7.585,4.741h158.341
		c2.844,0,5.689-1.896,7.585-4.741c4.741-8.533,12.326-13.274,21.807-14.222l128.948-9.482c4.741-0.948,4.741-2.844,4.741-3.793
		c0-2.844-2.844-5.689-5.689-5.689H23.652z"/>
	<path d="M255,369.304h-54.993c-3.793,0-6.637-1.896-8.533-4.741c-13.274-21.807-30.341-41.719-50.252-57.837
		c-6.637-4.741-10.43-13.274-10.43-20.859v-72.059c0-5.689,3.793-9.481,9.481-9.481s9.481,3.793,9.481,9.481v72.059
		c0,2.844,0.948,4.741,2.844,6.637c20.859,16.119,37.926,36.03,52.148,57.837H255c5.689,0,9.481,3.793,9.481,9.481
		S260.689,369.304,255,369.304z"/>
	<path d="M414.289,141.748H95.711c-4.741,0-8.533-2.844-9.481-7.585c-4.741-25.6-11.378-50.252-19.911-73.956
		c-1.896-3.793-0.948-6.637,0.948-9.481c1.896-1.896,4.741-3.793,7.585-3.793h66.37c5.689,0,9.481,3.793,9.481,9.481
		s-3.793,9.481-9.481,9.481H88.126c6.637,18.963,11.378,37.926,15.17,56.889h303.407c3.793-18.963,9.481-37.926,15.17-56.889h-204.8
		c-5.689,0-9.481-3.793-9.481-9.481s3.793-9.481,9.481-9.481h218.074c2.844,0,5.689,1.896,7.585,3.793
		c1.896,2.844,2.844,5.689,0.948,9.481c-8.533,23.704-16.118,49.304-20.859,73.956C422.822,138.904,419.03,141.748,414.289,141.748z
		"/>
	<path d="M188.63,56.415c0-5.689-3.793-9.481-9.481-9.481s-9.481,3.793-9.481,9.481s3.793,9.481,9.481,9.481
		S188.63,62.104,188.63,56.415"/>
	<path d="M309.993,407.23H200.007c-16.119,0-32.237-8.533-40.77-22.756c-11.378-18.015-24.652-34.133-41.719-47.407
		c-15.17-13.274-23.704-31.289-23.704-51.2v-72.059c0-26.548-2.844-53.096-7.585-79.644l0,0c0-0.948,0-0.948,0-1.896
		c0-4.741,3.793-8.533,8.533-9.481c0.948,0,1.896,0,1.896,0h315.733c0.948,0,1.896,0,1.896,0c4.741,0,8.533,4.741,8.533,9.481
		c0,0.948,0,0.948,0,1.896c-3.793,26.548-6.637,53.096-6.637,78.696v72.059c0,19.911-8.533,38.874-24.652,51.2
		c-17.067,13.274-30.341,29.393-41.719,47.407C341.281,398.696,326.111,407.23,309.993,407.23z M107.089,141.748
		c3.793,23.704,5.689,47.407,5.689,71.111v72.059c0,14.222,6.637,27.496,17.067,36.03c18.015,15.17,34.133,32.237,46.459,53.096
		c4.741,8.533,14.222,13.274,23.704,13.274h109.037c9.481,0,18.963-5.689,23.704-13.274c12.326-19.911,27.496-37.926,46.459-53.096
		c11.378-8.533,17.067-21.807,17.067-36.03v-72.059c0-23.704,1.896-47.407,5.689-71.111H107.089z"/>
</g>
<g>
</g>
<g>
</g>
<g>
</g>
<g>
</g>
<g>
</g>
<g>
</g>
<g>
</g>
<g>
</g>
<g>
</g>
<g>
</g>
<g>
</g>
<g>
</g>
<g>
</g>
<g>
</g>
<g>
</g>
</svg>
