<?xml version="1.0" encoding="iso-8859-1"?>
<!-- Generator: Adobe Illustrator 19.0.0, SVG Export Plug-In . SVG Version: 6.00 Build 0)  -->
<svg version="1.1" id="Layer_1" xmlns="http://www.w3.org/2000/svg" xmlns:xlink="http://www.w3.org/1999/xlink" x="0px" y="0px"
	 viewBox="0 0 512.898 512.898" style="enable-background:new 0 0 512.898 512.898;" xml:space="preserve">
<g transform="translate(1 1)">
	<path style="fill:#63D3FD;" d="M349.316,102.747c0-44.912-35.93-80.842-80.842-80.842c36.828,0,44.912,35.93,44.912,80.842
		c36.828,0,89.825,35.93,89.825,80.842l0,0h26.947l0,0C430.158,138.677,394.228,102.747,349.316,102.747"/>
	<g>
		<path style="fill:#FFE100;" d="M411.295,389.288c-3.593,0-6.288-1.796-8.084-4.491c-1.797-3.593-1.797-7.186,0.898-9.881
			c36.828-45.811,43.116-111.382,44.014-164.379c0-3.593,2.695-7.186,5.389-8.084c0.898,0,2.695-0.898,3.593-0.898
			c29.642,0,53.895,32.337,53.895,71.86c0,51.2-30.54,106.891-98.807,115.874H411.295z M466.088,221.316
			c-1.796,46.709-7.186,100.604-34.133,144.618c44.912-15.27,61.081-57.488,61.081-92.519
			C493.035,248.263,481.358,226.705,466.088,221.316z"/>
		<path style="fill:#FFE100;" d="M241.526,183.589H60.979c-4.491,0-8.084,3.593-8.084,8.982
			c0.898,116.772,20.66,242.526,188.632,242.526S429.26,309.344,430.158,192.572c0-5.389-3.593-8.982-8.084-8.982H241.526z"/>
	</g>
	<path style="fill:#FFA800;" d="M422.074,183.589c4.491,0,8.084,3.593,8.084,8.982c-0.898,116.772-20.66,242.526-188.632,242.526
		c192.225,0,214.681-125.754,215.579-242.526c0-5.389-4.491-8.982-8.982-8.982"/>
	<path style="fill:#FFFFFF;" d="M34.93,183.589c-5.389,0-8.982,3.593-8.982,8.982c0.898,116.772,23.354,242.526,215.579,242.526
		c-167.972,0-187.733-125.754-188.632-242.526c0-5.389,3.593-8.982,8.084-8.982"/>
	<path style="fill:#63D3FD;" d="M241.526,183.589h134.737l0,0c0-44.912-30.54-80.842-67.368-80.842
		c0-44.912-30.54-80.842-67.368-80.842s-67.368,35.93-67.368,80.842c-36.828,0-67.368,35.93-67.368,80.842l0,0H241.526z"/>
	<path style="fill:#FFFFFF;" d="M160.684,102.747c-44.912,0-80.842,35.93-80.842,80.842l0,0h26.947l0,0
		c0-44.912,30.54-80.842,67.368-80.842c0-44.912,30.54-80.842,67.368-80.842C196.614,21.905,160.684,57.835,160.684,102.747"/>
	<path style="fill:#3DB9F9;" d="M322.368,102.747c0-44.912-35.93-80.842-80.842-80.842c36.828,0,67.368,35.93,67.368,80.842
		c36.828,0,67.368,35.93,67.368,80.842l0,0h26.947l0,0C403.211,138.677,367.281,102.747,322.368,102.747"/>
	<path style="fill:#FFE100;" d="M437.344,462.046l-107.789,8.084c-5.389,0-9.881,3.593-12.575,8.982
		c-2.695,5.389-8.084,8.982-13.474,8.982h-61.979h-70.063c-5.389,0-10.779-3.593-13.474-8.982
		c-2.695-5.389-7.186-8.982-12.575-8.982l-99.705-8.084c-6.288-0.898-10.779-5.389-10.779-12.575
		c0-8.084,5.389-14.372,12.575-14.372h387.144c7.186,0,12.575,6.288,12.575,14.372C448.123,456.656,443.632,461.147,437.344,462.046
		"/>
	<path style="fill:#FFA800;" d="M463.393,462.046c7.186-0.898,11.677-5.389,11.677-12.575c0-8.084-6.288-14.372-14.372-14.372
		h-25.151c7.186,0,12.575,6.288,12.575,14.372c0,7.186-4.491,10.779-10.779,12.575"/>
	<path style="fill:#FFFFFF;" d="M45.709,462.046c-6.288-0.898-10.779-5.389-10.779-12.575c0-8.084,5.389-14.372,12.575-14.372
		H22.354c-8.084,0-14.372,6.288-14.372,14.372c0,7.186,5.389,10.779,11.677,12.575"/>
	<path d="M187.632,399.168c-0.898,0-0.898,0-1.796,0c-70.961-12.575-109.586-52.997-123.958-132.94
		c-0.898-4.491,2.695-9.881,7.186-10.779c4.491-0.898,9.881,2.695,10.779,7.186c13.474,71.86,45.811,107.789,109.586,118.568
		c4.491,0.898,8.084,5.389,7.186,10.779C195.716,396.474,192.123,399.168,187.632,399.168z"/>
	<path d="M311.589,497.975H162.481c-11.677,0-15.27-7.186-17.965-12.575l-0.898-0.898c-0.898-1.796-6.288-4.491-10.779-4.491
		L19.66,471.028C6.186,468.333-1,460.249-1,449.47c0-12.575,10.779-23.354,23.354-23.354H459.8
		c13.474,0,23.354,10.779,23.354,23.354c0,10.779-7.186,18.863-19.761,21.558h-0.898l-123.06,8.982
		c-4.491,0-9.881,2.695-10.779,4.491l-0.898,0.898C326.86,490.789,323.267,497.975,311.589,497.975z M161.582,480.011H311.59l0,0
		c0-0.898,0.898-1.797,1.796-2.695l0.898-0.898c5.389-9.881,18.863-13.474,25.151-14.372l122.161-8.982
		c4.491-0.898,4.491-2.695,4.491-3.593c0-2.695-2.695-5.389-5.389-5.389H22.354c-2.695,0-5.389,2.695-5.389,5.389
		c0,0.898,0,2.695,4.491,3.593l113.179,8.982c6.288,0.898,20.66,3.593,25.151,13.474l0.898,0.898
		C160.684,478.214,161.582,479.112,161.582,480.011z"/>
	<path d="M241.526,444.081c-128.449,0-199.411-55.691-218.274-168.87c-0.898-5.389,2.695-9.881,7.186-10.779
		c5.389-0.898,9.881,2.695,10.779,7.186c10.779,66.47,43.116,154.498,200.309,154.498c179.649,0,205.698-112.281,206.596-233.544
		H34.93c0,8.982,0,17.965,0.898,26.049c0,5.389-3.593,8.982-8.982,8.982s-8.982-3.593-8.982-8.982
		c-0.898-8.084-0.898-17.067-0.898-26.049c0-4.491,1.796-8.982,5.389-12.575c2.695-3.593,8.084-5.389,12.575-5.389h206.596h206.596
		c4.491,0,9.881,1.796,12.575,5.389c3.593,3.593,5.389,8.084,5.389,12.575C465.189,316.53,437.344,444.081,241.526,444.081z"/>
	<path d="M34.93,246.467c0-5.389-3.593-8.982-8.982-8.982s-8.982,3.593-8.982,8.982s3.593,8.982,8.982,8.982
		S34.93,251.856,34.93,246.467"/>
	<path d="M390.635,383l14.372-17.067c36.828-45.811,43.116-111.382,44.014-164.379v-6.288l7.186-2.695h1.797
		c29.642,0,53.895,32.337,53.895,71.86c0,51.2-30.54,106.891-98.807,115.874L390.635,383z M466.088,212.333
		c-1.796,46.709-7.186,100.604-34.133,144.618c44.912-15.27,61.081-57.488,61.081-92.519
		C493.035,239.281,481.358,217.723,466.088,212.333z"/>
	<path d="M403.211,192.572L403.211,192.572H241.526H79.842l0,0c-2.695,0-4.491-0.898-6.288-2.695
		c-1.796-1.796-2.695-3.593-2.695-6.288c0-46.709,35.93-85.333,80.842-89.825c4.491-45.811,43.116-80.842,89.825-80.842
		s85.333,35.93,89.825,80.842c45.811,4.491,80.842,43.116,80.842,89.825c0,2.695-0.898,4.491-2.695,6.288
		C407.702,191.674,405.905,192.572,403.211,192.572z M241.526,30.888c-39.523,0-71.86,32.337-71.86,71.86
		c0,5.389-3.593,8.982-8.982,8.982c-36.828,0-66.47,27.846-70.961,62.877h151.804l0,0H393.33
		c-4.491-35.032-35.032-62.877-70.961-62.877c-5.389,0-8.982-3.593-8.982-8.982C313.386,63.225,281.049,30.888,241.526,30.888z"/>
</g>
<g>
</g>
<g>
</g>
<g>
</g>
<g>
</g>
<g>
</g>
<g>
</g>
<g>
</g>
<g>
</g>
<g>
</g>
<g>
</g>
<g>
</g>
<g>
</g>
<g>
</g>
<g>
</g>
<g>
</g>
</svg>
