<?xml version="1.0" encoding="iso-8859-1"?>
<!-- Generator: Adobe Illustrator 19.0.0, SVG Export Plug-In . SVG Version: 6.00 Build 0)  -->
<svg version="1.1" id="Layer_1" xmlns="http://www.w3.org/2000/svg" xmlns:xlink="http://www.w3.org/1999/xlink" x="0px" y="0px"
	 viewBox="0 0 512 512" style="enable-background:new 0 0 512 512;" xml:space="preserve">
<g transform="translate(1 1)">
	<g>
		<path style="fill:#FFE100;" d="M448.766,202.034h-12.359c4.414,0,7.945,4.414,7.945,8.828
			c-0.883,114.759-20.303,238.345-185.379,238.345c181.848,0,209.214-113.876,211.862-225.103
			C470.835,211.745,461.124,202.034,448.766,202.034"/>
		<path style="fill:#FFE100;" d="M408.159,405.069c-3.531,0-6.179-1.766-7.945-4.414c-1.766-3.531-1.766-7.062,0.883-9.71
			c36.193-45.021,42.372-109.462,43.255-161.545c0-3.531,2.648-7.062,5.297-7.945c0.883,0,2.648-0.883,3.531-0.883
			c29.131,0,52.966,31.779,52.966,70.621c0,50.317-30.014,105.048-97.103,113.876H408.159z M462.007,239.993
			c-1.766,45.903-7.062,98.869-33.545,142.124c44.138-15.007,60.028-56.497,60.028-90.924
			C488.49,267.359,477.014,246.172,462.007,239.993z"/>
		<path style="fill:#FFE100;" d="M433.759,475.69l-105.931,7.945c-5.297,0-9.71,3.531-12.359,8.828
			c-2.648,5.297-7.945,8.828-13.241,8.828h-60.91h-68.855c-5.297,0-10.593-3.531-13.241-8.828
			c-2.648-5.297-7.062-8.828-12.359-8.828l-97.986-7.945c-6.179-0.883-10.593-5.297-10.593-12.359
			c0-7.945,5.297-14.124,12.359-14.124H431.11c7.062,0,12.359,6.179,12.359,14.124C444.352,470.393,439.938,474.807,433.759,475.69"
			/>
	</g>
	<path style="fill:#FFA800;" d="M459.359,475.69c7.062-0.883,11.476-5.297,11.476-12.359c0-7.945-6.179-14.124-14.124-14.124
		h-24.717c7.062,0,12.359,6.179,12.359,14.124c0,7.062-4.414,10.593-10.593,12.359"/>
	<path style="fill:#FFFFFF;" d="M48.876,475.69c-6.179-0.883-10.593-5.297-10.593-12.359c0-7.945,5.297-14.124,12.359-14.124H25.924
		c-7.945,0-14.124,6.179-14.124,14.124c0,7.062,5.297,10.593,11.476,12.359"/>
	<path style="fill:#FFE100;" d="M241.317,202.034H63.883c-4.414,0-7.945,4.414-7.945,8.828
		c0.883,114.759,20.303,238.345,185.379,238.345s184.497-123.586,185.379-238.345c0-5.297-3.531-8.828-7.945-8.828H241.317z"/>
	<path style="fill:#FFFFFF;" d="M55.938,210.862c0-5.297,3.531-8.828,7.945-8.828h-25.6c-5.297,0-8.828,4.414-8.828,8.828
		c0.883,114.759,22.952,238.345,211.862,238.345C76.241,449.207,56.821,325.621,55.938,210.862"/>
	<path style="fill:#FFA800;" d="M444.352,202.034h-25.6c4.414,0,7.945,4.414,7.945,8.828
		c-0.883,114.759-20.303,238.345-185.379,238.345c188.91,0,210.979-123.586,211.862-238.345
		C453.179,206.448,449.648,202.034,444.352,202.034"/>
	<g>
		<path style="fill:#FFE100;" d="M250.145,157.897c-2.648,0-4.414-0.883-6.179-2.648c-13.241-14.124-20.303-28.248-20.303-42.372
			s7.062-27.366,20.303-40.607c9.71-8.828,15.007-18.538,15.007-28.248s-5.297-19.421-15.007-30.014
			c-3.531-3.531-3.531-8.828,0-12.359s8.828-3.531,12.359,0c14.124,13.241,20.303,27.366,20.303,42.372
			c0,14.124-7.062,28.248-20.303,40.607c-9.71,8.828-15.007,18.538-15.007,28.248s5.297,19.421,15.007,30.014
			c3.531,3.531,3.531,8.828,0,12.359C254.559,157.014,252.793,157.897,250.145,157.897z"/>
		<path style="fill:#FFE100;" d="M347.248,157.897c-2.648,0-4.414-0.883-6.179-2.648c-13.241-14.124-20.303-28.248-20.303-42.372
			s7.062-27.366,20.303-40.607c9.71-9.71,15.007-18.538,15.007-28.248s-5.297-19.421-15.007-30.014
			c-3.531-3.531-3.531-8.828,0-12.359c3.531-3.531,8.828-3.531,12.359,0c14.124,13.241,20.303,27.366,20.303,42.372
			c0,14.124-7.062,28.248-21.186,40.607c-9.71,8.828-15.007,18.538-15.007,28.248s5.297,19.421,15.007,30.014
			c3.531,3.531,3.531,8.828,0,12.359C351.662,157.014,349.897,157.897,347.248,157.897z"/>
		<path style="fill:#FFE100;" d="M161.869,157.897c-2.648,0-4.414-0.883-6.179-2.648c-13.241-14.124-20.303-28.248-20.303-42.372
			s7.062-27.366,20.303-40.607c9.71-9.71,15.007-18.538,15.007-28.248S165.4,24.6,155.69,14.007c-3.531-3.531-3.531-8.828,0-12.359
			c3.531-3.531,8.828-3.531,12.359,0c14.124,13.241,20.303,27.366,20.303,42.372c0,14.124-7.062,28.248-21.186,40.607
			c-9.71,8.828-15.007,18.538-15.007,28.248s5.297,19.421,15.007,30.014c3.531,3.531,3.531,8.828,0,12.359
			C166.283,157.014,164.517,157.897,161.869,157.897z"/>
	</g>
	<path d="M310.172,511H163.634c-9.71,0-18.538-5.297-22.952-14.124c-0.883-2.648-3.531-4.414-6.179-4.414l-112.11-7.945
		c-12.359-2.648-19.421-10.593-19.421-21.186c0-13.241,10.593-22.952,22.952-22.952h429.903c13.241,0,22.952,10.593,22.952,22.952
		c0,10.593-7.062,18.538-19.421,21.186h-0.883l-120.055,7.945c-2.648,0-5.297,1.766-6.179,4.414
		C328.71,505.703,319.883,511,310.172,511z M25.041,466.862l110.345,7.945c8.828,0.883,16.772,6.179,21.186,14.124
		c1.766,2.648,4.414,4.414,7.062,4.414h147.421c2.648,0,5.297-1.766,7.062-4.414c4.414-7.945,12.359-13.241,21.186-14.124
		l118.29-7.945c4.414-0.883,4.414-2.648,4.414-3.531c0-2.648-2.648-5.297-5.297-5.297H25.924c-2.648,0-5.297,2.648-5.297,5.297
		C20.628,464.214,20.628,465.979,25.041,466.862z"/>
	<path d="M241.317,157.897c-2.648,0-4.414-0.883-6.179-2.648c-13.241-14.124-20.303-28.248-20.303-42.372
		s7.062-27.366,20.303-40.607c9.71-8.828,15.007-18.538,15.007-28.248s-5.297-19.421-15.007-30.014
		c-3.531-3.531-3.531-8.828,0-12.359c3.531-3.531,8.828-3.531,12.359,0C261.621,14.89,267.8,29.897,267.8,44.021
		s-7.062,28.248-20.303,40.607c-9.71,8.828-15.007,18.538-15.007,28.248s5.297,19.421,15.007,30.014
		c3.531,3.531,3.531,8.828,0,12.359C245.731,157.014,243.966,157.897,241.317,157.897z"/>
	<path d="M338.421,157.897c-2.648,0-4.414-0.883-6.179-2.648C319,141.124,311.938,127,311.938,112.876S319,85.51,332.241,72.269
		c9.71-9.71,15.007-18.538,15.007-28.248s-5.297-19.421-15.007-30.014c-3.531-3.531-3.531-8.828,0-12.359
		c3.531-3.531,8.828-3.531,12.359,0c14.124,13.241,20.303,27.366,20.303,42.372c0,14.124-7.062,28.248-21.186,40.607
		c-9.71,8.828-15.007,18.538-15.007,28.248s5.297,19.421,15.007,30.014c3.531,3.531,3.531,8.828,0,12.359
		C342.835,157.014,340.186,157.897,338.421,157.897z"/>
	<path d="M153.041,157.897c-2.648,0-4.414-0.883-6.179-2.648c-13.241-14.124-20.303-28.248-20.303-42.372
		s7.062-27.366,20.303-40.607c9.71-9.71,15.007-18.538,15.007-28.248s-5.297-19.421-15.007-30.014
		c-3.531-3.531-3.531-8.828,0-12.359s8.828-3.531,12.359,0c14.124,13.241,20.303,27.366,20.303,42.372
		c0,14.124-7.062,28.248-21.186,40.607c-9.71,8.828-15.007,18.538-15.007,28.248s5.297,19.421,15.007,30.014
		c3.531,3.531,3.531,8.828,0,12.359C157.455,157.014,154.807,157.897,153.041,157.897z"/>
	<path d="M241.317,458.034c-119.172,0-188.91-48.552-210.979-148.303c-0.883-4.414,1.766-9.71,6.179-10.593s9.71,1.766,10.593,7.062
		c21.186,91.807,82.979,134.179,194.207,134.179c176.552,0,202.152-110.345,203.034-229.517H38.283
		c0,15.89,0.883,30.014,1.766,43.255c0,5.297-3.531,8.828-7.945,9.71c-5.297,0-8.828-3.531-9.71-7.945
		c-0.883-13.241-1.766-28.248-1.766-45.021c0-4.414,1.766-8.828,5.297-12.359c3.531-3.531,7.945-5.297,12.359-5.297h406.069
		c4.414,0,8.828,1.766,12.359,5.297c3.531,3.531,5.297,7.945,5.297,12.359C461.124,333.566,433.759,458.034,241.317,458.034z"/>
	<path d="M42.697,282.366c0-5.297-3.531-8.828-8.828-8.828s-8.828,3.531-8.828,8.828c0,5.297,3.531,8.828,8.828,8.828
		S42.697,286.779,42.697,282.366"/>
	<path d="M387.855,398.007l14.124-16.772c36.193-45.021,42.372-109.462,43.255-161.545v-6.179l7.062-2.648h1.766
		c29.131,0,52.966,31.779,52.966,70.621c0,50.317-30.014,105.048-97.103,113.876L387.855,398.007z M462.007,230.283
		c-1.766,45.903-7.062,98.869-33.545,142.124C472.6,357.4,488.49,315.91,488.49,281.483
		C488.49,256.766,477.014,235.579,462.007,230.283z"/>
	<path d="M188.352,413.897c-0.883,0-0.883,0-1.766,0C116.848,401.538,78.89,361.814,64.766,283.248
		c-0.883-4.414,2.648-9.71,7.062-10.593c4.414-0.883,9.71,2.648,10.593,7.062c13.241,70.621,45.021,105.931,107.697,116.524
		c4.414,0.883,7.945,5.297,7.062,10.593C196.297,411.248,192.766,413.897,188.352,413.897z"/>
</g>
<g>
</g>
<g>
</g>
<g>
</g>
<g>
</g>
<g>
</g>
<g>
</g>
<g>
</g>
<g>
</g>
<g>
</g>
<g>
</g>
<g>
</g>
<g>
</g>
<g>
</g>
<g>
</g>
<g>
</g>
</svg>
