<?xml version="1.0" encoding="iso-8859-1"?>
<!-- Generator: Adobe Illustrator 19.0.0, SVG Export Plug-In . SVG Version: 6.00 Build 0)  -->
<svg version="1.1" id="Layer_1" xmlns="http://www.w3.org/2000/svg" xmlns:xlink="http://www.w3.org/1999/xlink" x="0px" y="0px"
	 viewBox="0 0 512 512" style="enable-background:new 0 0 512 512;" xml:space="preserve">
<g transform="translate(0 1)">
	<g>
		<path style="fill:#FFE100;" d="M226.133,152.6c-2.56,0-4.267-0.853-5.973-2.56c-12.8-13.653-19.627-27.307-19.627-40.96
			s6.827-26.453,19.627-39.253c9.387-8.533,14.507-17.92,14.507-27.307s-5.12-18.773-14.507-29.013
			c-3.413-3.413-3.413-8.533,0-11.947s8.533-3.413,11.947,0c13.653,12.8,19.627,26.453,19.627,40.96
			c0,13.653-6.827,27.307-19.627,39.253c-9.387,8.533-14.507,17.92-14.507,27.307c0,9.387,5.12,18.773,14.507,29.013
			c3.413,3.413,3.413,8.533,0,11.947C230.4,151.747,228.693,152.6,226.133,152.6z"/>
		<path style="fill:#FFE100;" d="M328.533,152.6c-2.56,0-4.267-0.853-5.973-2.56c-12.8-13.653-19.627-27.307-19.627-40.96
			s6.827-26.453,19.627-39.253c9.387-8.533,14.507-17.92,14.507-27.307s-5.12-18.773-14.507-29.013
			c-3.413-3.413-3.413-8.533,0-11.947s8.533-3.413,11.947,0c13.653,12.8,19.627,26.453,19.627,40.96
			c0,13.653-6.827,27.307-19.627,39.253C325.12,90.307,320,99.693,320,109.08c0,9.387,5.12,18.773,14.507,29.013
			c3.413,3.413,3.413,8.533,0,11.947C332.8,151.747,331.093,152.6,328.533,152.6z"/>
		<path style="fill:#FFE100;" d="M140.8,152.6c-2.56,0-4.267-0.853-5.973-2.56c-13.653-13.653-19.627-27.307-19.627-40.96
			s6.827-26.453,19.627-39.253c9.387-9.387,14.507-17.92,14.507-27.307s-4.267-19.627-14.507-29.013
			c-3.413-3.413-3.413-8.533,0-11.947s8.533-3.413,11.947,0c13.653,12.8,19.627,26.453,19.627,40.96
			c0,13.653-6.827,27.307-19.627,39.253c-9.387,9.387-14.507,17.92-14.507,27.307c0,9.387,5.12,18.773,14.507,29.013
			c3.413,3.413,3.413,8.533,0,11.947C145.067,151.747,143.36,152.6,140.8,152.6z"/>
		<path style="fill:#FFE100;" d="M345.6,212.333V459.8c0,9.387-5.973,23.893-13.653,25.6l-27.307,8.533
			c-23.04,5.973-46.933,8.533-69.12,8.533c28.16,0,56.32-2.56,85.333-8.533l34.133-8.533c10.24-1.707,17.067-16.213,17.067-25.6
			V212.333H345.6z"/>
		<path style="fill:#FFE100;" d="M345.6,178.2v34.133h25.6v-25.6c0-5.12-4.267-8.533-8.533-8.533H345.6z"/>
		<path style="fill:#FFE100;" d="M362.667,425.667c-5.12,0-8.533-3.413-8.533-8.533v-204.8c0-5.12,3.413-8.533,8.533-8.533
			c42.667,0,76.8,34.133,76.8,76.8v68.267C439.467,391.533,405.333,425.667,362.667,425.667z M371.2,221.72V408.6
			c29.013-4.267,51.2-29.013,51.2-58.88v-68.267C422.4,250.733,400.213,225.987,371.2,221.72z"/>
		<path style="fill:#FFE100;" d="M314.88,485.4l-27.307,8.533c-47.787,11.093-96.427,11.093-138.24,0l-27.307-8.533
			c-9.387-1.707-15.36-16.213-15.36-25.6V212.333h221.867V459.8C328.533,469.187,322.56,483.693,314.88,485.4"/>
	</g>
	<path style="fill:#FFFFFF;" d="M148.48,493.933l-27.307-8.533c-8.533-1.707-14.507-16.213-14.507-25.6V212.333h-25.6V459.8
		c0,9.387,6.827,23.893,17.067,25.6l34.133,8.533c26.453,5.973,54.613,8.533,82.773,8.533
		C192,502.467,169.813,499.907,148.48,493.933"/>
	<path style="fill:#FFA800;" d="M328.533,212.333V459.8c0,9.387-5.973,23.893-13.653,25.6l-27.307,8.533
		c-23.04,5.973-46.933,8.533-69.12,8.533c28.16,0,56.32-2.56,85.333-8.533l34.133-8.533c10.24-1.707,17.067-16.213,17.067-25.6
		V212.333H328.533z"/>
	<g>
		<path style="fill:#FDCC00;" d="M337.067,451.267l-34.133,8.533c-57.173,11.093-116.907,11.093-170.667,0l-34.133-8.533
			c-10.24-1.707-17.067-15.36-17.067-25.6V459.8c0,10.24,6.827,23.893,17.067,25.6l34.133,8.533
			c55.467,11.093,115.2,11.093,170.667,0l34.133-8.533c10.24-1.707,17.067-15.36,17.067-25.6v-34.133
			C354.133,435.907,347.307,449.56,337.067,451.267"/>
		<polygon style="fill:#FDCC00;" points="328.533,212.333 217.6,212.333 106.667,212.333 106.667,178.2 217.6,178.2 328.533,178.2 
					"/>
	</g>
	<polygon style="fill:#FFFFFF;" points="81.067,212.333 106.667,212.333 106.667,178.2 81.067,178.2 	"/>
	<polygon style="fill:#FFA800;" points="328.533,212.333 354.133,212.333 354.133,178.2 328.533,178.2 	"/>
	<path style="fill:#63D3FD;" d="M260.267,340.333c0-37.547-24.747-68.267-55.467-68.267s-55.467,30.72-55.467,68.267
		S174.08,408.6,204.8,408.6S260.267,377.88,260.267,340.333"/>
	<path style="fill:#3DB9F9;" d="M217.6,272.067c-2.56,0-5.12,0-6.827,0c28.16,3.413,49.493,32.427,49.493,68.267
		s-22.187,64-49.493,68.267c2.56,0,4.267,0,6.827,0c37.547,0,68.267-30.72,68.267-68.267S255.147,272.067,217.6,272.067"/>
	<path d="M215.04,511c-29.013,0-58.027-2.56-84.48-8.533l-34.133-8.533C81.92,491.373,72.533,472.6,72.533,459.8V323.267
		c0-5.12,3.413-8.533,8.533-8.533c5.12,0,8.533,3.413,8.533,8.533V459.8c0,6.827,5.973,16.213,10.24,17.067l34.987,8.533
		c51.2,11.093,109.227,11.093,167.253,0l33.28-8.533c5.12-0.853,10.24-10.24,10.24-17.067V220.867h-256V255
		c0,5.12-3.413,8.533-8.533,8.533c-5.12,0-8.533-3.413-8.533-8.533v-42.667c0-5.12,3.413-8.533,8.533-8.533h273.067
		c5.12,0,8.533,3.413,8.533,8.533V459.8c0,12.8-9.387,31.573-23.893,34.133l-33.28,8.533C274.773,508.44,244.907,511,215.04,511z"/>
	<path d="M89.6,289.133c0-5.12-3.413-8.533-8.533-8.533c-5.12,0-8.533,3.413-8.533,8.533c0,5.12,3.413,8.533,8.533,8.533
		C86.187,297.667,89.6,294.253,89.6,289.133"/>
	<path d="M217.6,152.6c-2.56,0-4.267-0.853-5.973-2.56C198.827,136.387,192,122.733,192,109.08s6.827-26.453,19.627-39.253
		c9.387-8.533,14.507-17.92,14.507-27.307s-5.12-18.773-14.507-29.013c-3.413-3.413-3.413-8.533,0-11.947s8.533-3.413,11.947,0
		c13.653,12.8,19.627,26.453,19.627,40.96c0,13.653-6.827,27.307-19.627,39.253c-9.387,8.533-14.507,17.92-14.507,27.307
		s5.12,18.773,14.507,29.013c3.413,3.413,3.413,8.533,0,11.947C221.867,151.747,220.16,152.6,217.6,152.6z"/>
	<path d="M320,152.6c-2.56,0-4.267-0.853-5.973-2.56c-12.8-13.653-19.627-27.307-19.627-40.96s6.827-26.453,19.627-39.253
		c9.387-8.533,14.507-17.92,14.507-27.307s-5.12-18.773-14.507-29.013c-3.413-3.413-3.413-8.533,0-11.947s8.533-3.413,11.947,0
		c13.653,12.8,19.627,26.453,19.627,40.96c0,13.653-6.827,27.307-19.627,39.253c-9.387,8.533-14.507,17.92-14.507,27.307
		s5.12,18.773,14.507,29.013c3.413,3.413,3.413,8.533,0,11.947C324.267,151.747,322.56,152.6,320,152.6z"/>
	<path d="M132.267,152.6c-2.56,0-4.267-0.853-5.973-2.56c-13.653-13.653-19.627-27.307-19.627-40.96s6.827-26.453,19.627-39.253
		C135.68,60.44,140.8,51.907,140.8,42.52s-5.12-19.627-14.507-29.013c-3.413-3.413-3.413-8.533,0-11.947s8.533-3.413,11.947,0
		c12.8,12.8,19.627,26.453,19.627,40.96c0,13.653-6.827,27.307-19.627,39.253c-9.387,9.387-14.507,17.92-14.507,27.307
		c0,9.387,5.12,18.773,14.507,29.013c3.413,3.413,3.413,8.533,0,11.947C136.533,151.747,133.973,152.6,132.267,152.6z"/>
	<path d="M354.133,425.667c-5.12,0-8.533-3.413-8.533-8.533v-204.8c0-5.12,3.413-8.533,8.533-8.533c42.667,0,76.8,34.133,76.8,76.8
		v68.267C430.933,391.533,396.8,425.667,354.133,425.667z M362.667,221.72V408.6c29.013-4.267,51.2-29.013,51.2-58.88v-68.267
		C413.867,250.733,391.68,225.987,362.667,221.72z"/>
	<path d="M354.133,220.867H81.067c-5.12,0-8.533-3.413-8.533-8.533V178.2c0-5.12,3.413-8.533,8.533-8.533h273.067
		c5.12,0,8.533,3.413,8.533,8.533v34.133C362.667,217.453,359.253,220.867,354.133,220.867z M89.6,203.8h256v-17.067h-256V203.8z"/>
	<path d="M217.6,417.133c-42.667,0-76.8-34.133-76.8-76.8s34.133-76.8,76.8-76.8s76.8,34.133,76.8,76.8
		S260.267,417.133,217.6,417.133z M217.6,280.6c-33.28,0-59.733,26.453-59.733,59.733s26.453,59.733,59.733,59.733
		s59.733-26.453,59.733-59.733S250.88,280.6,217.6,280.6z"/>
	<path d="M217.6,383c-23.893,0-42.667-18.773-42.667-42.667c0-23.893,18.773-42.667,42.667-42.667c5.12,0,8.533,3.413,8.533,8.533
		s-3.413,8.533-8.533,8.533c-14.507,0-25.6,11.093-25.6,25.6c0,14.507,11.093,25.6,25.6,25.6c14.507,0,25.6-11.093,25.6-25.6
		c0-5.12,3.413-8.533,8.533-8.533s8.533,3.413,8.533,8.533C260.267,364.227,241.493,383,217.6,383z"/>
	<path d="M217.6,511c-29.013,0-58.88-2.56-87.04-8.533l-34.133-8.533c-14.507-2.56-23.893-19.627-23.893-34.133v-34.133
		c0-5.12,3.413-8.533,8.533-8.533c5.12,0,8.533,3.413,8.533,8.533c0,6.827,5.12,16.213,10.24,17.067l34.987,8.533
		c52.907,11.093,110.933,11.093,167.253,0l33.28-8.533c0,0,0,0,0.853,0c5.12-0.853,10.24-10.24,10.24-17.067
		c0-5.12,3.413-8.533,8.533-8.533c5.12,0,8.533,3.413,8.533,8.533V459.8c0,14.507-9.387,31.573-23.893,34.133l-33.28,8.533
		C276.48,508.44,246.613,511,217.6,511z M89.6,457.24v2.56c0,6.827,5.12,16.213,10.24,17.067l34.987,8.533
		c54.613,11.093,112.64,11.093,167.253,0l34.133-8.533c5.12-0.853,10.24-10.24,10.24-17.067v-2.56
		c-1.707,0.853-4.267,1.707-6.827,2.56l-34.133,8.533c-58.88,11.947-119.467,11.947-174.08,0L97.28,459.8
		C93.867,458.947,91.307,458.093,89.6,457.24z"/>
</g>
<g>
</g>
<g>
</g>
<g>
</g>
<g>
</g>
<g>
</g>
<g>
</g>
<g>
</g>
<g>
</g>
<g>
</g>
<g>
</g>
<g>
</g>
<g>
</g>
<g>
</g>
<g>
</g>
<g>
</g>
</svg>
